<svg width="256" height="256" xmlns="http://www.w3.org/2000/svg">
  <!-- Fondo del escudo -->
  <rect width="256" height="256" fill="#2C1810" rx="20"/>
  
  <!-- Torre principal -->
  <rect x="96" y="80" width="64" height="120" fill="#8B4513"/>
  
  <!-- Torres laterales -->
  <rect x="64" y="100" width="32" height="100" fill="#A0522D"/>
  <rect x="160" y="100" width="32" height="100" fill="#A0522D"/>
  
  <!-- Tejados -->
  <polygon points="128,60 96,80 160,80" fill="#654321"/>
  <polygon points="80,85 64,100 96,100" fill="#654321"/>
  <polygon points="176,85 160,100 192,100" fill="#654321"/>
  
  <!-- Puerta -->
  <rect x="112" y="160" width="32" height="40" fill="#4A4A4A"/>
  <ellipse cx="128" cy="180" rx="16" ry="20" fill="#4A4A4A"/>
  
  <!-- Ventanas -->
  <rect x="104" y="120" width="8" height="12" fill="#4169E1"/>
  <rect x="144" y="120" width="8" height="12" fill="#4169E1"/>
  <rect x="72" y="140" width="6" height="10" fill="#4169E1"/>
  <rect x="170" y="140" width="6" height="10" fill="#4169E1"/>
  
  <!-- Murallas -->
  <rect x="32" y="180" width="192" height="20" fill="#696969"/>
  
  <!-- Texto decorativo -->
  <text x="128" y="230" text-anchor="middle" font-family="serif" font-size="16" font-weight="bold" fill="#D4AF37">MEDIEVAL CITY</text>
  <text x="128" y="245" text-anchor="middle" font-family="serif" font-size="12" fill="#D4AF37">GENERATOR</text>
</svg>
